<mxfile host="app.diagrams.net" agent="Mozilla/5.0 (Windows NT 10.0; Win64; x64) AppleWebKit/537.36 (KHTML, like Gecko) Chrome/133.0.0.0 Safari/537.36 Edg/133.0.0.0" version="24.9.0">
  <diagram id="6a731a19-8d31-9384-78a2-239565b7b9f0" name="Page-1">
    <mxGraphModel dx="1589" dy="681" grid="1" gridSize="10" guides="1" tooltips="1" connect="1" arrows="1" fold="1" page="1" pageScale="1" pageWidth="1169" pageHeight="827" background="none" math="0" shadow="0">
      <root>
        <mxCell id="0" />
        <mxCell id="1" parent="0" />
        <mxCell id="2" value="Acordar" style="shape=mxgraph.flowchart.terminator;strokeWidth=2;gradientColor=none;gradientDirection=north;fontStyle=0;html=1;" parent="1" vertex="1">
          <mxGeometry x="260" y="60" width="120" height="30" as="geometry" />
        </mxCell>
        <mxCell id="3" value="Levantar da cama" style="shape=mxgraph.flowchart.data;strokeWidth=2;gradientColor=none;gradientDirection=north;fontStyle=0;html=1;" parent="1" vertex="1">
          <mxGeometry x="240.5" y="130" width="159" height="80" as="geometry" />
        </mxCell>
        <mxCell id="4" value="Escovar os dentes&amp;nbsp;" style="shape=mxgraph.flowchart.data;strokeWidth=2;gradientColor=none;gradientDirection=north;fontStyle=0;html=1;" parent="1" vertex="1">
          <mxGeometry x="240.5" y="510" width="159" height="80" as="geometry" />
        </mxCell>
        <mxCell id="5" value="Arrumar a cama" style="shape=mxgraph.flowchart.data;strokeWidth=2;gradientColor=none;gradientDirection=north;fontStyle=0;html=1;" parent="1" vertex="1">
          <mxGeometry x="240.5" y="250" width="159" height="80" as="geometry" />
        </mxCell>
        <mxCell id="6" value="Ir até o banheiro" style="shape=mxgraph.flowchart.decision;strokeWidth=2;gradientColor=none;gradientDirection=north;fontStyle=0;html=1;" parent="1" vertex="1">
          <mxGeometry x="270" y="390" width="99" height="70" as="geometry" />
        </mxCell>
        <mxCell id="7" style="fontStyle=1;strokeColor=#003366;strokeWidth=1;html=1;" parent="1" source="2" target="3" edge="1">
          <mxGeometry relative="1" as="geometry" />
        </mxCell>
        <mxCell id="8" style="fontStyle=1;strokeColor=#003366;strokeWidth=1;html=1;" parent="1" source="3" target="5" edge="1">
          <mxGeometry relative="1" as="geometry" />
        </mxCell>
        <mxCell id="9" style="entryX=0.5;entryY=0;entryPerimeter=0;fontStyle=1;strokeColor=#003366;strokeWidth=1;html=1;" parent="1" source="5" target="6" edge="1">
          <mxGeometry relative="1" as="geometry" />
        </mxCell>
        <mxCell id="12" value="" style="edgeStyle=elbowEdgeStyle;elbow=horizontal;fontColor=#001933;fontStyle=1;strokeColor=#003366;strokeWidth=1;html=1;" parent="1" source="6" target="4" edge="1">
          <mxGeometry width="100" height="100" as="geometry">
            <mxPoint y="100" as="sourcePoint" />
            <mxPoint x="100" as="targetPoint" />
          </mxGeometry>
        </mxCell>
        <mxCell id="13" value="Tomar banho" style="shape=mxgraph.flowchart.data;strokeWidth=2;gradientColor=none;gradientDirection=north;fontStyle=0;html=1;" parent="1" vertex="1">
          <mxGeometry x="240.5" y="640" width="159" height="80" as="geometry" />
        </mxCell>
        <mxCell id="17" value="" style="edgeStyle=elbowEdgeStyle;elbow=horizontal;fontStyle=1;strokeColor=#003366;strokeWidth=1;html=1;" parent="1" source="4" target="13" edge="1">
          <mxGeometry width="100" height="100" as="geometry">
            <mxPoint y="100" as="sourcePoint" />
            <mxPoint x="100" as="targetPoint" />
          </mxGeometry>
        </mxCell>
        <mxCell id="20" value="Ir até a coxzinha" style="shape=mxgraph.flowchart.manual_input;strokeWidth=2;gradientColor=none;gradientDirection=north;fontStyle=0;html=1;" parent="1" vertex="1">
          <mxGeometry x="242" y="780" width="158" height="80" as="geometry" />
        </mxCell>
        <mxCell id="21" value="" style="edgeStyle=elbowEdgeStyle;elbow=horizontal;entryX=0.5;entryY=0.195;entryPerimeter=0;fontStyle=1;strokeColor=#003366;strokeWidth=1;html=1;" parent="1" source="13" target="20" edge="1">
          <mxGeometry width="100" height="100" as="geometry">
            <mxPoint y="100" as="sourcePoint" />
            <mxPoint x="100" as="targetPoint" />
          </mxGeometry>
        </mxCell>
        <mxCell id="22" value="Fazer o café da manhã" style="shape=mxgraph.flowchart.document;strokeWidth=2;gradientColor=none;gradientDirection=north;fontStyle=0;html=1;" parent="1" vertex="1">
          <mxGeometry x="240.5" y="920" width="159" height="90" as="geometry" />
        </mxCell>
        <mxCell id="23" value="" style="edgeStyle=elbowEdgeStyle;elbow=horizontal;exitX=0.5;exitY=1;exitPerimeter=0;fontStyle=1;strokeColor=#003366;strokeWidth=1;html=1;" parent="1" source="20" target="22" edge="1">
          <mxGeometry width="100" height="100" as="geometry">
            <mxPoint y="100" as="sourcePoint" />
            <mxPoint x="100" as="targetPoint" />
          </mxGeometry>
        </mxCell>
        <mxCell id="24" value="Tomar&amp;nbsp;&lt;div&gt;o café da&lt;/div&gt;&lt;div&gt;manhã&lt;/div&gt;" style="shape=mxgraph.flowchart.decision;strokeWidth=2;gradientColor=none;gradientDirection=north;fontStyle=0;html=1;" parent="1" vertex="1">
          <mxGeometry x="261.5" y="1080" width="119" height="78.5" as="geometry" />
        </mxCell>
        <mxCell id="25" value="" style="edgeStyle=elbowEdgeStyle;elbow=horizontal;exitX=0.5;exitY=0.9;exitPerimeter=0;fontStyle=1;strokeColor=#003366;strokeWidth=1;html=1;" parent="1" source="22" target="24" edge="1">
          <mxGeometry width="100" height="100" as="geometry">
            <mxPoint y="100" as="sourcePoint" />
            <mxPoint x="100" as="targetPoint" />
          </mxGeometry>
        </mxCell>
        <mxCell id="28" value="Se vestir&amp;nbsp;&lt;div&gt;para o&amp;nbsp;&lt;/div&gt;&lt;div&gt;trabalho&lt;/div&gt;" style="shape=mxgraph.flowchart.decision;strokeWidth=2;gradientColor=none;gradientDirection=north;fontStyle=0;html=1;" parent="1" vertex="1">
          <mxGeometry x="255" y="1210" width="130" height="100" as="geometry" />
        </mxCell>
        <mxCell id="30" value="" style="edgeStyle=elbowEdgeStyle;elbow=horizontal;exitX=0.5;exitY=1;exitPerimeter=0;fontStyle=1;strokeColor=#003366;strokeWidth=1;html=1;" parent="1" source="24" target="28" edge="1">
          <mxGeometry width="100" height="100" as="geometry">
            <mxPoint y="100" as="sourcePoint" />
            <mxPoint x="100" as="targetPoint" />
          </mxGeometry>
        </mxCell>
        <mxCell id="34" value="Ir até o carro" style="shape=mxgraph.flowchart.data;strokeWidth=2;gradientColor=none;gradientDirection=north;fontStyle=0;html=1;" parent="1" vertex="1">
          <mxGeometry x="240.5" y="1490" width="159" height="80" as="geometry" />
        </mxCell>
        <mxCell id="35" value="" style="edgeStyle=elbowEdgeStyle;elbow=vertical;exitX=0.5;exitY=1;exitPerimeter=0;fontColor=#001933;fontStyle=1;strokeColor=#003366;strokeWidth=1;html=1;" parent="1" source="28" target="34" edge="1">
          <mxGeometry width="100" height="100" as="geometry">
            <mxPoint y="100" as="sourcePoint" />
            <mxPoint x="100" as="targetPoint" />
          </mxGeometry>
        </mxCell>
        <mxCell id="37" value="Ligar o carro" style="shape=mxgraph.flowchart.decision;strokeWidth=2;gradientColor=none;gradientDirection=north;fontStyle=0;html=1;" parent="1" vertex="1">
          <mxGeometry x="271" y="1621.5" width="98" height="57" as="geometry" />
        </mxCell>
        <mxCell id="38" value="Ir para o trabalho" style="shape=mxgraph.flowchart.data;strokeWidth=2;gradientColor=none;gradientDirection=north;fontStyle=0;html=1;" parent="1" vertex="1">
          <mxGeometry x="240.5" y="1730" width="159" height="80" as="geometry" />
        </mxCell>
        <mxCell id="40" value="Fim" style="shape=mxgraph.flowchart.terminator;strokeWidth=2;gradientColor=none;gradientDirection=north;fontStyle=0;html=1;" parent="1" vertex="1">
          <mxGeometry x="260" y="1910" width="120" height="30" as="geometry" />
        </mxCell>
        <mxCell id="41" value="" style="edgeStyle=elbowEdgeStyle;elbow=vertical;exitX=0.5;exitY=1;exitPerimeter=0;entryX=0.5;entryY=0;entryPerimeter=0;fontStyle=1;strokeColor=#003366;strokeWidth=1;html=1;" parent="1" source="34" target="37" edge="1">
          <mxGeometry width="100" height="100" as="geometry">
            <mxPoint y="100" as="sourcePoint" />
            <mxPoint x="100" as="targetPoint" />
          </mxGeometry>
        </mxCell>
        <mxCell id="42" value="" style="edgeStyle=elbowEdgeStyle;elbow=vertical;exitX=0.5;exitY=1;exitPerimeter=0;entryX=0.5;entryY=0;entryPerimeter=0;fontStyle=1;strokeColor=#003366;strokeWidth=1;html=1;" parent="1" source="37" target="38" edge="1">
          <mxGeometry width="100" height="100" as="geometry">
            <mxPoint y="100" as="sourcePoint" />
            <mxPoint x="100" as="targetPoint" />
          </mxGeometry>
        </mxCell>
        <mxCell id="43" value="" style="edgeStyle=elbowEdgeStyle;elbow=vertical;exitX=0.5;exitY=1;exitPerimeter=0;entryX=0.5;entryY=0;entryPerimeter=0;fontStyle=1;strokeColor=#003366;strokeWidth=1;html=1;" parent="1" source="38" target="40" edge="1">
          <mxGeometry width="100" height="100" as="geometry">
            <mxPoint y="100" as="sourcePoint" />
            <mxPoint x="100" as="targetPoint" />
          </mxGeometry>
        </mxCell>
      </root>
    </mxGraphModel>
  </diagram>
</mxfile>
